<?xml version="1.0" encoding="UTF-8"?>
<!--Generator: Apple Native CoreSVG 123-->
<!DOCTYPE svg
PUBLIC "-//W3C//DTD SVG 1.1//EN"
       "http://www.w3.org/Graphics/SVG/1.1/DTD/svg11.dtd">
<svg version="1.1" xmlns="http://www.w3.org/2000/svg" xmlns:xlink="http://www.w3.org/1999/xlink" width="3300" height="2200">
 <!--glyph: "", point size: 1.000000, font version: "Version 15.0d4e20", template writer version: "2"-->
 <g id="Notes">
  <rect height="2200" id="artboard" style="fill:white;opacity:1" width="3300" x="0" y="0"/>
  <line id="" style="fill:none;stroke:black;opacity:1;stroke-width:0.5;" x1="263" x2="3036" y1="292" y2="292"/>
  <text style="stroke:none;fill:black;font-family:-apple-system,&quot;SF Pro Display&quot;,&quot;SF Pro Text&quot;,Helvetica,sans-serif;font-weight:bold;" transform="matrix(1 0 0 1 263 322)">Weight/Scale Variations</text>
  <text style="stroke:none;fill:black;font-family:-apple-system,&quot;SF Pro Display&quot;,&quot;SF Pro Text&quot;,Helvetica,sans-serif;text-anchor:middle;" transform="matrix(1 0 0 1 559.711 322)">Ultralight</text>
  <text style="stroke:none;fill:black;font-family:-apple-system,&quot;SF Pro Display&quot;,&quot;SF Pro Text&quot;,Helvetica,sans-serif;text-anchor:middle;" transform="matrix(1 0 0 1 856.422 322)">Thin</text>
  <text style="stroke:none;fill:black;font-family:-apple-system,&quot;SF Pro Display&quot;,&quot;SF Pro Text&quot;,Helvetica,sans-serif;text-anchor:middle;" transform="matrix(1 0 0 1 1153.13 322)">Light</text>
  <text style="stroke:none;fill:black;font-family:-apple-system,&quot;SF Pro Display&quot;,&quot;SF Pro Text&quot;,Helvetica,sans-serif;text-anchor:middle;" transform="matrix(1 0 0 1 1449.84 322)">Regular</text>
  <text style="stroke:none;fill:black;font-family:-apple-system,&quot;SF Pro Display&quot;,&quot;SF Pro Text&quot;,Helvetica,sans-serif;text-anchor:middle;" transform="matrix(1 0 0 1 1746.56 322)">Medium</text>
  <text style="stroke:none;fill:black;font-family:-apple-system,&quot;SF Pro Display&quot;,&quot;SF Pro Text&quot;,Helvetica,sans-serif;text-anchor:middle;" transform="matrix(1 0 0 1 2043.27 322)">Semibold</text>
  <text style="stroke:none;fill:black;font-family:-apple-system,&quot;SF Pro Display&quot;,&quot;SF Pro Text&quot;,Helvetica,sans-serif;text-anchor:middle;" transform="matrix(1 0 0 1 2339.98 322)">Bold</text>
  <text style="stroke:none;fill:black;font-family:-apple-system,&quot;SF Pro Display&quot;,&quot;SF Pro Text&quot;,Helvetica,sans-serif;text-anchor:middle;" transform="matrix(1 0 0 1 2636.69 322)">Heavy</text>
  <text style="stroke:none;fill:black;font-family:-apple-system,&quot;SF Pro Display&quot;,&quot;SF Pro Text&quot;,Helvetica,sans-serif;text-anchor:middle;" transform="matrix(1 0 0 1 2933.4 322)">Black</text>
  <line id="" style="fill:none;stroke:black;opacity:1;stroke-width:0.5;" x1="263" x2="3036" y1="1903" y2="1903"/>
  <g id="" transform="matrix(1 0 0 1 263 1933)">
   <path d="M 9.24805 0.830078 C 13.5547 0.830078 17.1387 -2.74414 17.1387 -7.05078 C 17.1387 -11.3574 13.5449 -14.9316 9.23828 -14.9316 C 4.94141 -14.9316 1.36719 -11.3574 1.36719 -7.05078 C 1.36719 -2.74414 4.95117 0.830078 9.24805 0.830078 Z M 9.24805 -0.654297 C 5.70312 -0.654297 2.87109 -3.49609 2.87109 -7.05078 C 2.87109 -10.6055 5.69336 -13.4473 9.23828 -13.4473 C 12.793 -13.4473 15.6348 -10.6055 15.6445 -7.05078 C 15.6543 -3.49609 12.8027 -0.654297 9.24805 -0.654297 Z M 9.22852 -3.42773 C 9.69727 -3.42773 9.9707 -3.74023 9.9707 -4.25781 L 9.9707 -6.31836 L 12.1973 -6.31836 C 12.6953 -6.31836 13.0371 -6.57227 13.0371 -7.04102 C 13.0371 -7.51953 12.7148 -7.7832 12.1973 -7.7832 L 9.9707 -7.7832 L 9.9707 -10.0098 C 9.9707 -10.5273 9.69727 -10.8496 9.22852 -10.8496 C 8.75977 -10.8496 8.50586 -10.5078 8.50586 -10.0098 L 8.50586 -7.7832 L 6.29883 -7.7832 C 5.78125 -7.7832 5.44922 -7.51953 5.44922 -7.04102 C 5.44922 -6.57227 5.80078 -6.31836 6.29883 -6.31836 L 8.50586 -6.31836 L 8.50586 -4.25781 C 8.50586 -3.75977 8.75977 -3.42773 9.22852 -3.42773 Z"/>
  </g>
  <g id="" transform="matrix(1 0 0 1 281.506 1933)">
   <path d="M 11.709 2.91016 C 17.1484 2.91016 21.6699 -1.60156 21.6699 -7.05078 C 21.6699 -12.4902 17.1387 -17.0117 11.6992 -17.0117 C 6.25 -17.0117 1.74805 -12.4902 1.74805 -7.05078 C 1.74805 -1.60156 6.25977 2.91016 11.709 2.91016 Z M 11.709 1.25 C 7.09961 1.25 3.41797 -2.44141 3.41797 -7.05078 C 3.41797 -11.6504 7.08984 -15.3516 11.6992 -15.3516 C 16.2988 -15.3516 20 -11.6504 20.0098 -7.05078 C 20.0195 -2.44141 16.3086 1.25 11.709 1.25 Z M 11.6797 -2.41211 C 12.207 -2.41211 12.5195 -2.77344 12.5195 -3.33984 L 12.5195 -6.23047 L 15.5762 -6.23047 C 16.123 -6.23047 16.5039 -6.51367 16.5039 -7.03125 C 16.5039 -7.55859 16.1426 -7.86133 15.5762 -7.86133 L 12.5195 -7.86133 L 12.5195 -10.9277 C 12.5195 -11.5039 12.207 -11.8555 11.6797 -11.8555 C 11.1621 -11.8555 10.8789 -11.4844 10.8789 -10.9277 L 10.8789 -7.86133 L 7.83203 -7.86133 C 7.25586 -7.86133 6.89453 -7.55859 6.89453 -7.03125 C 6.89453 -6.51367 7.28516 -6.23047 7.83203 -6.23047 L 10.8789 -6.23047 L 10.8789 -3.33984 C 10.8789 -2.79297 11.1621 -2.41211 11.6797 -2.41211 Z"/>
  </g>
  <g id="" transform="matrix(1 0 0 1 304.914 1933)">
   <path d="M 14.9707 5.67383 C 21.9336 5.67383 27.6855 -0.078125 27.6855 -7.04102 C 27.6855 -14.0039 21.9238 -19.7559 14.9609 -19.7559 C 7.99805 -19.7559 2.25586 -14.0039 2.25586 -7.04102 C 2.25586 -0.078125 8.00781 5.67383 14.9707 5.67383 Z M 14.9707 3.85742 C 8.92578 3.85742 4.08203 -1.00586 4.08203 -7.04102 C 4.08203 -13.0762 8.91602 -17.9395 14.9609 -17.9395 C 20.9961 -17.9395 25.8594 -13.0762 25.8691 -7.04102 C 25.8789 -1.00586 21.0059 3.85742 14.9707 3.85742 Z M 14.9414 -1.06445 C 15.5176 -1.06445 15.8594 -1.45508 15.8594 -2.06055 L 15.8594 -6.13281 L 20.0977 -6.13281 C 20.6934 -6.13281 21.1133 -6.46484 21.1133 -7.02148 C 21.1133 -7.59766 20.7227 -7.93945 20.0977 -7.93945 L 15.8594 -7.93945 L 15.8594 -12.1875 C 15.8594 -12.8027 15.5176 -13.1934 14.9414 -13.1934 C 14.3848 -13.1934 14.0625 -12.7832 14.0625 -12.1875 L 14.0625 -7.93945 L 9.82422 -7.93945 C 9.20898 -7.93945 8.80859 -7.59766 8.80859 -7.02148 C 8.80859 -6.46484 9.23828 -6.13281 9.82422 -6.13281 L 14.0625 -6.13281 L 14.0625 -2.06055 C 14.0625 -1.47461 14.3848 -1.06445 14.9414 -1.06445 Z"/>
  </g>
  <text style="stroke:none;fill:black;font-family:-apple-system,&quot;SF Pro Display&quot;,&quot;SF Pro Text&quot;,Helvetica,sans-serif;font-weight:bold;" transform="matrix(1 0 0 1 263 1953)">Design Variations</text>
  <text style="stroke:none;fill:black;font-family:-apple-system,&quot;SF Pro Display&quot;,&quot;SF Pro Text&quot;,Helvetica,sans-serif;" transform="matrix(1 0 0 1 263 1971)">Symbols are supported in up to nine weights and three scales.</text>
  <text style="stroke:none;fill:black;font-family:-apple-system,&quot;SF Pro Display&quot;,&quot;SF Pro Text&quot;,Helvetica,sans-serif;" transform="matrix(1 0 0 1 263 1989)">For optimal layout with text and other symbols, vertically align</text>
  <text style="stroke:none;fill:black;font-family:-apple-system,&quot;SF Pro Display&quot;,&quot;SF Pro Text&quot;,Helvetica,sans-serif;" transform="matrix(1 0 0 1 263 2007)">symbols with the adjacent text.</text>
  <rect height="14" id="" style="fill:#00AEEF;stroke:none;opacity:0.4;" width="3" x="776" y="1919"/>
  <g id="" transform="matrix(1 0 0 1 779 1933)">
   <path d="M 10.957 0 L 12.8027 0 L 7.60742 -14.0918 L 5.86914 -14.0918 L 0.673828 0 L 2.51953 0 L 3.93555 -4.0332 L 9.54102 -4.0332 Z M 6.66016 -11.8164 L 6.81641 -11.8164 L 9.02344 -5.52734 L 4.45312 -5.52734 Z"/>
  </g>
  <rect height="14" id="" style="fill:#00AEEF;stroke:none;opacity:0.4;" width="3" x="792.477" y="1919"/>
  <text style="stroke:none;fill:black;font-family:-apple-system,&quot;SF Pro Display&quot;,&quot;SF Pro Text&quot;,Helvetica,sans-serif;font-weight:bold;" transform="matrix(1 0 0 1 776 1953)">Side Bearings</text>
  <text style="stroke:none;fill:black;font-family:-apple-system,&quot;SF Pro Display&quot;,&quot;SF Pro Text&quot;,Helvetica,sans-serif;" transform="matrix(1 0 0 1 776 1971)">Horizontal padding on the left and right side of each symbol</text>
  <text style="stroke:none;fill:black;font-family:-apple-system,&quot;SF Pro Display&quot;,&quot;SF Pro Text&quot;,Helvetica,sans-serif;" transform="matrix(1 0 0 1 776 1989)">can be adjusted by modifying the width of the blue rectangles.</text>
  <text style="stroke:none;fill:black;font-family:-apple-system,&quot;SF Pro Display&quot;,&quot;SF Pro Text&quot;,Helvetica,sans-serif;" transform="matrix(1 0 0 1 776 2007)">Modifications are automatically applied proportionally to all</text>
  <text style="stroke:none;fill:black;font-family:-apple-system,&quot;SF Pro Display&quot;,&quot;SF Pro Text&quot;,Helvetica,sans-serif;" transform="matrix(1 0 0 1 776 2025)">scales and weights.</text>
  <g id="" transform="matrix(1 0 0 1 1289 1933)">
   <path d="M 2.96875 2.35352 L 3.80859 3.19336 C 4.84375 4.22852 6.12305 4.15039 7.19727 2.97852 L 16.1621 -6.82617 C 16.5527 -6.74805 16.9629 -6.8457 17.4902 -7.02148 C 18.1738 -7.25586 18.2715 -7.25586 18.3887 -7.13867 C 18.5352 -7.01172 18.4863 -6.89453 18.2422 -6.25 C 17.8809 -5.33203 17.8125 -4.79492 18.5547 -4.02344 L 19.4238 -3.13477 C 20.2734 -2.24609 21.3281 -2.26562 22.2168 -3.14453 L 25.0586 -5.97656 C 25.9473 -6.86523 25.957 -7.92969 25.0781 -8.7793 L 24.1797 -9.64844 C 23.4082 -10.4004 22.8711 -10.3516 21.9629 -9.98047 C 21.3184 -9.72656 21.2012 -9.6875 21.0645 -9.81445 C 20.9375 -9.93164 20.9473 -10.0391 21.1816 -10.7129 C 21.5332 -11.6895 21.5723 -12.2852 20.752 -13.0957 L 19.3359 -14.5117 C 15.1953 -18.6133 11.2305 -18.7402 7.65625 -15.4395 C 7.08008 -14.9023 6.99219 -14.1504 7.53906 -13.6133 L 7.79297 -13.3594 C 8.22266 -12.9297 8.86719 -12.8418 9.41406 -13.1152 C 11.0645 -13.9453 12.2559 -14.0234 13.457 -12.9785 L 13.0273 -11.416 C 12.8516 -10.8008 12.793 -10.3418 12.9199 -9.93164 L 3.18359 -1.04492 C 2.02148 0.0292969 1.93359 1.32812 2.96875 2.35352 Z M 8.96484 -14.4922 C 8.89648 -14.5703 8.86719 -14.6582 8.99414 -14.7559 C 11.709 -17.2852 15.0391 -16.8457 18.3496 -13.5254 L 19.6973 -12.168 C 20.0879 -11.7773 20.0977 -11.582 19.8828 -10.8691 C 19.6582 -10.127 19.502 -9.53125 20.1465 -8.88672 C 20.8105 -8.22266 21.2891 -8.41797 22.207 -8.63281 C 22.9004 -8.79883 23.0664 -8.79883 23.4473 -8.41797 L 24.0918 -7.77344 C 24.4043 -7.48047 24.4141 -7.32422 24.0723 -6.97266 L 21.2207 -4.13086 C 20.8887 -3.79883 20.7227 -3.79883 20.4297 -4.10156 L 19.7852 -4.75586 C 19.4141 -5.13672 19.4141 -5.30273 19.5801 -6.01562 C 19.7852 -6.88477 19.9805 -7.38281 19.3262 -8.04688 C 18.6719 -8.7207 18.0762 -8.57422 17.3438 -8.33008 C 16.5625 -8.06641 16.3281 -8.06641 15.8984 -8.49609 L 14.6094 -9.78516 C 14.1699 -10.2246 14.1309 -10.4395 14.2676 -10.9082 L 15.0293 -13.3984 C 13.3887 -15.2832 11.4941 -15.5566 9.20898 -14.4434 C 9.11133 -14.3945 9.04297 -14.4141 8.96484 -14.4922 Z M 3.96484 1.36719 C 3.52539 0.927734 3.54492 0.537109 4.14062 -0.00976562 L 13.7402 -8.81836 L 15 -7.55859 L 6.17188 2.02148 C 5.625 2.60742 5.24414 2.64648 4.79492 2.19727 Z"/>
  </g>
  <text style="stroke:none;fill:black;font-family:-apple-system,&quot;SF Pro Display&quot;,&quot;SF Pro Text&quot;,Helvetica,sans-serif;font-weight:bold;" transform="matrix(1 0 0 1 1289 1953)">Exporting</text>
  <text style="stroke:none;fill:black;font-family:-apple-system,&quot;SF Pro Display&quot;,&quot;SF Pro Text&quot;,Helvetica,sans-serif;" transform="matrix(1 0 0 1 1289 1971)">Symbols should be outlined when exporting to ensure the</text>
  <text style="stroke:none;fill:black;font-family:-apple-system,&quot;SF Pro Display&quot;,&quot;SF Pro Text&quot;,Helvetica,sans-serif;" transform="matrix(1 0 0 1 1289 1989)">design is preserved when submitting to Xcode.</text>
  <text id="template-version" style="stroke:none;fill:black;font-family:-apple-system,&quot;SF Pro Display&quot;,&quot;SF Pro Text&quot;,Helvetica,sans-serif;text-anchor:end;" transform="matrix(1 0 0 1 3036 1933)">Template v.0.1</text>
  <text style="stroke:none;fill:black;font-family:-apple-system,&quot;SF Pro Display&quot;,&quot;SF Pro Text&quot;,Helvetica,sans-serif;text-anchor:end;" transform="matrix(1 0 0 1 3036 1951)">Generated from </text>
  <text style="stroke:none;fill:black;font-family:-apple-system,&quot;SF Pro Display&quot;,&quot;SF Pro Text&quot;,Helvetica,sans-serif;text-anchor:end;" transform="matrix(1 0 0 1 3036 1969)">Typeset at 100 points</text>
 </g>
 <g fill="#000000" id="Symbols" transform="matrix(1 0 0 1 0 0)">
  <g id="Regular-S" transform="matrix(1 0 0 1 1414.36 612)">
   <g id="Regular-M" transform="translate(0.640000, 0.000000)">
    <path d="M 60.1995 8.1188e-15 C 64.5076 8.1188e-15 68 3.48346 68 7.79156 L 68 90.0387 C 68 92.6239 66.172 93.7123 63.8988 92.4595 L 40.8395 79.7512 C 37.0622 77.6695 30.9378 77.6695 27.1605 79.7512 L 4.10119 92.4595 C 1.83617 93.7077 2.84217e-13 92.6309 2.84217e-13 90.0387 L 2.84217e-13 7.79156 C 2.84217e-13 3.4884 3.48917 8.1188e-15 7.80046 8.1188e-15 L 60.1995 8.1188e-15 Z M 34 50.4402 L 45.9684 56.6143 C 46.2711 56.7704 46.6166 56.8232 46.9522 56.7646 C 47.8009 56.6162 48.3686 55.808 48.2203 54.9593 L 45.9422 41.9264 L 55.5649 32.7226 C 55.8175 32.481 55.9816 32.1615 56.031 31.8154 C 56.1526 30.9625 55.5597 30.1725 54.7068 30.0509 L 41.3807 28.1508 L 35.3936 16.2472 C 35.2431 15.948 35.0002 15.7051 34.701 15.5546 C 33.9313 15.1674 32.9935 15.4776 32.6064 16.2472 L 26.6193 28.1508 L 13.2932 30.0509 C 12.9471 30.1002 12.6277 30.2643 12.3861 30.517 C 11.7905 31.1396 11.8125 32.1271 12.4351 32.7226 L 22.0578 41.9264 L 19.7797 54.9593 C 19.7211 55.2948 19.7738 55.6403 19.93 55.9431 C 20.325 56.7088 21.2659 57.0093 22.0316 56.6143 L 34 50.4402 Z" id="Shape"/>
   </g>
  </g>
  <g id="Regular-M" transform="matrix(1 0 0 1 1405 1031)">
   <path d="M 77.2926 0.491803 C 82.8114 0.491803 87.2852 4.97736 87.2852 10.4953 L 87.2852 115.476 C 87.2852 118.789 84.9277 120.172 82.0433 118.577 L 52.7646 102.385 C 47.9277 99.7104 40.0895 99.7081 35.2485 102.385 L 5.96984 118.577 C 3.07478 120.178 0.727869 118.793 0.727869 115.476 L 0.727869 10.4953 C 0.727869 4.97053 5.1993 0.491803 10.7205 0.491803 L 77.2926 0.491803 Z M 44.0066 64.918 L 59.2145 72.7903 C 59.6028 72.9913 60.0464 73.0596 60.4771 72.9845 C 61.5653 72.795 62.2938 71.7591 62.1043 70.671 L 59.2079 54.0435 L 71.4485 42.2955 C 71.7707 41.9862 71.9802 41.5779 72.0434 41.1358 C 72.1999 40.0423 71.4403 39.0291 70.3469 38.8727 L 53.4015 36.4483 L 45.7945 21.272 C 45.6012 20.8863 45.2884 20.5735 44.9028 20.3802 C 43.9153 19.8853 42.7135 20.2845 42.2186 21.272 L 34.6116 36.4483 L 17.6663 38.8727 C 17.2241 38.9359 16.8159 39.1454 16.5066 39.4676 C 15.7417 40.2646 15.7677 41.5306 16.5646 42.2955 L 28.8052 54.0435 L 25.9089 70.671 C 25.8338 71.1018 25.902 71.5453 26.103 71.9336 C 26.6108 72.9145 27.8177 73.2981 28.7986 72.7903 L 44.0066 64.918 Z" id="Shape"/>
  </g>
  <g id="Regular-L" transform="matrix(1 0 0 1 1393.71 1446)">
   <path d="M 96.6932 1.22312e-13 C 103.65 1.22312e-13 109.29 5.64132 109.29 12.5995 L 109.29 145.211 C 109.29 149.388 106.331 151.133 102.675 149.106 L 65.8025 128.658 C 59.7205 125.286 49.8574 125.287 43.7775 128.658 L 6.90469 149.106 C 3.2515 151.131 0.29 149.387 0.29 145.211 L 0.29 12.5995 C 0.29 5.64101 5.93976 1.22312e-13 12.8868 1.22312e-13 L 96.6932 1.22312e-13 Z M 54.79 81.3551 L 73.9374 91.294 C 74.4269 91.5481 74.9863 91.6346 75.5297 91.5402 C 76.9009 91.302 77.8194 89.9973 77.5812 88.6261 L 73.9327 67.6232 L 89.3582 52.7774 C 89.7626 52.3882 90.0255 51.8751 90.1052 51.3196 C 90.3029 49.9419 89.3463 48.6649 87.9686 48.4672 L 66.6208 45.4045 L 57.0441 26.2455 C 56.8002 25.7576 56.4046 25.3621 55.9167 25.1182 C 54.6718 24.4959 53.1582 25.0006 52.5359 26.2455 L 42.9592 45.4045 L 21.6114 48.4672 C 21.0558 48.5469 20.5427 48.8098 20.1535 49.2142 C 19.1884 50.217 19.219 51.8123 20.2218 52.7774 L 35.6473 67.6232 L 31.9988 88.6261 C 31.9044 89.1695 31.9909 89.7288 32.245 90.2184 C 32.8862 91.4536 34.4074 91.9352 35.6426 91.294 L 54.79 81.3551 Z" id="Shape"/>
  </g>
 </g>
 <g id="Guides" transform="matrix(1 0 0 1 0 0)">
  <g fill="#27AAE1" fill-rule="nonzero" id="H-reference" transform="matrix(1 0 0 1 339 625)">
   <path d="M 54.9316 71 L 57.666 71 L 30.5664 0.541 L 28.0762 0.541 L 0.976562 71 L 3.66211 71 L 12.9395 46.5371 L 45.7031 46.5371 L 54.9316 71 Z M 29.1992 3.9102 L 29.4434 3.9102 L 44.8242 44.291 L 13.8184 44.291 L 29.1992 3.9102 Z" id="Shape"/>
  </g>
  <g fill="#27AAE1" fill-rule="nonzero" id="H-reference" transform="matrix(1 0 0 1 339 1055)">
   <path d="M 54.9316 71 L 57.666 71 L 30.5664 0.541 L 28.0762 0.541 L 0.976562 71 L 3.66211 71 L 12.9395 46.5371 L 45.7031 46.5371 L 54.9316 71 Z M 29.1992 3.9102 L 29.4434 3.9102 L 44.8242 44.291 L 13.8184 44.291 L 29.1992 3.9102 Z" id="Shape"/>
  </g>
  <g fill="#27AAE1" fill-rule="nonzero" id="H-reference" transform="matrix(1 0 0 1 339 1485)">
   <path d="M 54.9316 71 L 57.666 71 L 30.5664 0.541 L 28.0762 0.541 L 0.976562 71 L 3.66211 71 L 12.9395 46.5371 L 45.7031 46.5371 L 54.9316 71 Z M 29.1992 3.9102 L 29.4434 3.9102 L 44.8242 44.291 L 13.8184 44.291 L 29.1992 3.9102 Z" id="Shape"/>
  </g>
  <rect fill="#00AEEF" fill-rule="nonzero" height="119.336" id="left-margin" opacity="0.4" transform="matrix(1 0 0 1 263 625)" width="12.4512" x="1122" y="406"/>
  <rect fill="#00AEEF" fill-rule="nonzero" height="119.336" id="right-margin" opacity="0.4" transform="matrix(1 0 0 1 263 625)" width="12.4512" x="1239" y="406"/>
  <line id="Baseline-S" style="fill:none;stroke:#27AAE1;opacity:1;stroke-width:0.577;" x1="263" x2="3036" y1="696" y2="696"/>
  <line id="Baseline-M" style="fill:none;stroke:#27AAE1;opacity:1;stroke-width:0.577;" x1="263" x2="3036" y1="1126" y2="1126"/>
  <line id="Baseline-L" style="fill:none;stroke:#27AAE1;opacity:1;stroke-width:0.577;" x1="263" x2="3036" y1="1556" y2="1556"/>
  <line id="Capline-S" style="fill:none;stroke:#27AAE1;opacity:1;stroke-width:0.577;" x1="263" x2="3036" y1="625.541" y2="625.541"/>
  <line id="Capline-M" style="fill:none;stroke:#27AAE1;opacity:1;stroke-width:0.577;" x1="263" x2="3036" y1="1055.54" y2="1055.54"/>
  <line id="Capline-L" style="fill:none;stroke:#27AAE1;opacity:1;stroke-width:0.577;" x1="263" x2="3036" y1="1485.54" y2="1485.54"/>
 </g>
</svg>
